<?xml version="1.0" encoding="UTF-8"?>
<!DOCTYPE svg PUBLIC "-//W3C//DTD SVG 1.1//EN" "http://www.w3.org/Graphics/SVG/1.1/DTD/svg11.dtd">
<!-- Creator: CorelDRAW 2018 (64-Bit) -->
<svg xmlns="http://www.w3.org/2000/svg" xml:space="preserve" width="112.988mm" height="113.048mm" version="1.1" style="shape-rendering:geometricPrecision; text-rendering:geometricPrecision; image-rendering:optimizeQuality; fill-rule:evenodd; clip-rule:evenodd" viewBox="0 0 14780.84 14788.66" xmlns:xlink="http://www.w3.org/1999/xlink">
 <defs>
  <style type="text/css">
   <![CDATA[
    .str2 {stroke:black;stroke-width:76.1;stroke-miterlimit:4}
    .str0 {stroke:black;stroke-width:46.15;stroke-miterlimit:22.9256}
    .str1 {stroke:black;stroke-width:126.84;stroke-miterlimit:4}
    .fil1 {fill:none;fill-rule:nonzero}
    .fil0 {fill:black;fill-rule:nonzero}
   ]]>
  </style>
 </defs>
 <g id="Livello_x0020_1">
  <metadata id="CorelCorpID_0Corel-Layer"/>
  <path class="fil0 str0" d="M5360.56 6840.48c-23.39,-37.09 -51.96,-69.79 -87.39,-97.51 -34.34,-28.48 -73.41,-50.43 -116.3,-65.81 -44.05,-15.69 -90.26,-23.48 -138.43,-23.48 -86.81,0 -160.74,16.81 -221.77,50.53 -61,34.14 -110.53,79.71 -148.32,136.84 -37.86,56.6 -65.59,121.79 -82.81,193.9 -18.14,73.31 -26.19,148.32 -26.19,225.87 0,74.55 8.05,146.92 26.19,216.59 17.22,70.42 44.95,132.61 82.81,189.58 37.79,56.06 87.32,100.96 148.32,135.11 61.04,33.66 134.96,50.55 221.77,50.55 118.56,0 211.69,-36.6 278.96,-108.83 65.4,-72.62 108.43,-168.32 123.1,-286.71l375.84 0c-10.1,109.81 -36.6,210.15 -78.43,298.77 -40.15,89.26 -94.16,164.63 -162.34,227.26 -67.65,61.88 -146.58,109.59 -237.58,142.62 -90.34,32.6 -191.06,48.94 -299.55,48.94 -134.21,0 -256.25,-23.02 -364.39,-70.21 -108.38,-46.78 -199.2,-111.46 -273.36,-194 -72.81,-82.78 -130.01,-179.52 -169.38,-290.89 -40.32,-111.3 -59.14,-230.7 -59.14,-359.12 0,-132.32 18.82,-254.66 59.14,-368.05 39.38,-112.46 96.57,-211.32 169.38,-295.6 74.16,-84.01 164.97,-149.69 273.36,-198.1 108.15,-47.38 229.81,-71.05 364.39,-71.05 98.01,0 189.36,13.76 276.52,41.85 87.18,27.42 163.91,69.11 232.24,122.35 68.68,53.79 125.14,119.88 169.43,199.16 43.41,79.37 72.88,170 84.36,271.26l-375.17 0c-7.1,-44.35 -22.46,-84.12 -45.28,-121.82z"/>
  <polygon class="fil0 str0" points="6546.67,6369.22 6546.67,8136.79 6159.35,8136.79 6159.35,6369.22 "/>
  <path class="fil0 str0" d="M7285.23 7699.93c21.81,40.95 51.61,74.79 86.44,99.59 35.28,25.4 76.52,45.24 125.19,57.02 47.77,12.43 96.77,18.47 148.19,18.47 35.41,0 71.65,-2.88 111.9,-7.84 39.39,-6.36 76.07,-17.8 111.22,-34.17 33.49,-15.97 63.87,-38.71 87.57,-67.55 21.6,-29.19 33.14,-65.53 33.14,-110.19 0,-47.42 -14.98,-86.8 -45.34,-116.07 -30.34,-30.19 -70.63,-54.38 -119.25,-74.32 -49.17,-20.19 -105.78,-37.58 -168.78,-52.14 -62.37,-15.06 -126.19,-31.37 -190.18,-49.46 -65.76,-16.44 -130.57,-36.64 -192.98,-60.54 -62.78,-23.8 -118.17,-55.1 -168.38,-92.84 -49.03,-37.66 -89.28,-84.85 -120.16,-141.48 -29.79,-56.92 -44.16,-125.94 -44.16,-207.37 0,-90.34 18.52,-168.49 56.88,-235.42 39.57,-66.87 88.92,-122.79 152.42,-167.2 62.43,-44.45 133.85,-77.18 212.09,-98.09 79.37,-22.06 158.15,-33.12 237.32,-33.12 92.45,0 180.24,10.73 265.73,31.41 84.18,20.55 159.99,54.35 225.39,100.21 65.34,46.68 119.07,105.66 156.75,177.51 39.21,72.49 58.76,159.34 58.76,261.32l-375.59 0c-3.96,-52.67 -14.43,-95.99 -33.99,-130.8 -19.65,-34.59 -43.26,-61.86 -74.76,-81.45 -31.72,-19.65 -68.37,-34.21 -108.57,-42.38 -39.13,-8.08 -83.92,-12.36 -131.2,-12.36 -31.32,0 -61.88,3.6 -93.43,10.27 -32.09,6.37 -59.94,18.14 -86.12,34.82 -25.47,16.35 -45.66,36.56 -62.43,60.79 -16.9,25.29 -24.33,56.26 -24.33,94.57 0,34.17 6.89,62.62 19.78,83.72 12.89,22.1 38.76,41.5 77.25,59.64 39.62,18.12 93.47,35.63 161.48,54.38 68.14,18.22 157.74,41.1 267.8,69.42 33.31,6.06 79.28,18.22 137.14,35.52 58.45,17.44 117.17,44.5 175.05,82.19 56.88,38.41 107.39,88.93 149.13,152.13 42.36,63.71 63.28,144.79 63.28,243.31 0,80.71 -16.09,155.38 -47.51,225.18 -31.45,68.33 -77.69,129.05 -139.92,179.3 -61.21,50.05 -138.77,88.93 -229.77,116.95 -92.61,28.09 -197.08,41.6 -317.99,41.6 -97.12,0 -191.67,-11.33 -283.04,-35.56 -92.16,-23.8 -172.19,-61.92 -243.27,-112.71 -70.13,-50.95 -125.56,-116.34 -166.7,-195.64 -40.47,-78.92 -60.53,-172.8 -59.85,-281.39l376.44 -0.35c0,59.47 10.1,109.56 31.37,151.13z"/>
  <polygon class="fil0 str0" points="9238.21,6369.22 9651.34,7584.13 9656.48,7584.13 10045.46,6369.22 10592.49,6369.22 10592.49,8136.79 10228.57,8136.79 10228.57,6883.79 10222.84,6883.79 9792.27,8136.79 9492.07,8136.79 9062.13,6896.3 9056.89,6896.3 9056.89,8136.79 8691.81,8136.79 8691.81,6369.22 "/>
  <path class="fil1 str1" d="M3568.21 7357.84c0,-2111.81 1711.78,-3824.19 3823.33,-3824.19 2111.75,-0.34 3824.37,1711.76 3824.37,3823.82 0.76,2111.81 -1712.09,3823.92 -3824.05,3823.92 -2111.24,0.31 -3823.65,-1711.37 -3823.65,-3823.56z"/>
  <path class="fil1 str2" d="M1908.5 7358.24c0,-3028.63 2454.58,-5483.6 5483.05,-5483.88 3028.66,0 5483.77,2454.5 5484.13,5483.11 0.27,3027.89 -2454.75,5482.69 -5483.26,5483 -3028.25,0.31 -5483.58,-2454.27 -5483.92,-5482.23z"/>
  <path class="fil0" d="M14613.01 7205.19c-22.87,-17.77 -224.64,-98.65 -414.7,-166.57 -141.45,-50.53 -272.26,-92.42 -308.69,-92.42 -103.57,0 -284.03,-0.01 -399.99,-9.51l-0.25 0c-80.52,-6.91 -138.18,-124.88 -165.76,-260.8 -9.18,-45.26 -15.71,-91.95 -19.07,-135.68 -3.49,-45.45 -3.9,-89.06 -0.71,-126.36 6.75,-78.86 32.81,-137.78 83.04,-154.81 131.51,-64.92 217.52,-91.1 299.9,-116.14 34.59,-10.52 68.51,-20.84 106.83,-34.73 75.6,-27.84 182.65,-94.08 287.43,-167.49 155.92,-109.25 303.25,-231.17 338.95,-269.37 6.25,-29.09 -9.39,-103.67 -31.2,-177.47 -20.66,-69.87 -44.61,-133.37 -59.04,-152.72 -51.36,-13.92 -184.2,-31.95 -334.32,-44.83 -135.84,-11.67 -283,-18.76 -394.07,-14.42l-0.48 0c-162.53,5.57 -296.76,41.52 -379.53,63.68 -49.99,13.37 -84.27,22.55 -109.49,19.6 -4.74,-0.61 -9.72,-1.62 -14.8,-3.01l-0.25 0c-60.86,-16.9 -134.53,-125.26 -188.1,-245.45 -50.78,-113.94 -88.39,-244.12 -81.09,-314.55 0.89,-8.67 2.41,-16.91 4.55,-24.62 15.19,-54.16 110.93,-107.01 216.95,-165.5 72.53,-40.02 150.73,-83.17 198.84,-120.93l0.25 -0.25c54.52,-42.44 143.91,-141.45 231.08,-246.83 110.36,-133.42 214.95,-274.27 241.23,-324.03l0.13 -5.55c0,-40.89 -32.12,-108.89 -71.84,-171.54 -37.41,-58.96 -78.6,-109.35 -104.17,-125.48 -80.6,7.1 -557.56,51.75 -719.76,125.6l-0.73 0.24c-66.06,29.36 -129.04,62.35 -185.6,91.96 -107.14,56.12 -193.32,101.25 -263.34,101.25 -14.15,0 -29.21,-4.29 -44.79,-12.28 -46.03,-23.6 -130.4,-105.05 -201.62,-189.19 -74.96,-88.55 -139.05,-186.6 -139.05,-238.18 0,-13.51 3,-26.35 9.2,-38.45 22.55,-44.57 79.94,-109.51 141.91,-179.63 61.44,-69.52 127.78,-144.57 159.35,-198.27 18.85,-37.18 312.18,-616.95 312.18,-693.38 -5.04,-32.99 -57.69,-94.63 -116.98,-149.77 -54.15,-50.36 -108.16,-91.83 -130.73,-97.28 -66.01,21 -457.65,150.27 -663.57,323.46l0 0.25c-58.21,48.86 -111.22,95.04 -155.96,134.01 -133.49,116.28 -197.98,172.46 -270.96,172.46 -47.47,0 -168.13,-71.94 -271.66,-151.21 -98.83,-75.68 -188.59,-164.08 -195.9,-213.1l0 -0.5c-10.47,-74.37 68.04,-211.86 137.69,-333.77 36.77,-64.4 70.81,-123.99 83.29,-157.99 18.35,-50.63 47.12,-211.09 69.32,-372.83 19.87,-144.81 34.08,-288.35 30.28,-351.92 -10.26,-28.22 -65.16,-68.1 -125.23,-101.82 -59.68,-33.48 -118.97,-57.89 -143.79,-58.23 -33.08,14.87 -158.66,106.18 -291.58,214.1 -105.56,85.7 -213.17,180.76 -279.36,255.17l-0.25 0c-34.64,38.8 -70.12,101.99 -105.33,164.74 -48.69,86.72 -97,172.74 -157.19,219.18 -15.28,11.76 -33.66,19.65 -54.43,24.07 -69.54,14.74 -188.93,-9.67 -297.98,-48.98 -109.59,-39.48 -214.04,-96.16 -252.22,-145.25 -11.17,-14.38 -18.8,-29.68 -22.2,-45.76l-0.25 -24.53c0.17,-0.93 61.41,-332.22 85.2,-468.68 9.12,-56.98 4.98,-159.06 -4.72,-270.52 -16.91,-194.33 -50.6,-410.65 -62.52,-480.6l0 -0.48c-0.08,-0.54 -1.4,-0.68 -4.04,-3.26 -27.73,-26.99 -93.21,-48.4 -161.36,-62.19 -70.65,-14.29 -140.37,-19.32 -175.92,-13.95 -31.55,38 -143.61,195.32 -247,346.05 -88.83,129.52 -169.63,251.95 -184.35,285.34l-0.25 0.25c-12.14,27.16 -27.16,84.89 -43.37,147.25 -30.48,117.25 -64.78,249.06 -115.43,290.4l-0.75 0.5c-36.9,29.12 -177.72,35.58 -311.74,25.99 -130.5,-9.33 -263.92,-34.03 -298.58,-67.91l-0.5 -0.5c-46.91,-46.85 -50.08,-170.82 -53.43,-302.53 -1.83,-71.58 -3.74,-145.82 -11.62,-203.84 -10.58,-75.93 -44.28,-187.04 -84.34,-300.32 -63.71,-180.1 -142.51,-362.39 -172.46,-423.04 -10.02,-19.9 -157.03,-12.68 -157.44,-12.66l-2.97 0.25c-6.25,0 -3.02,-0.21 -15.74,-0.46 -40.42,-0.78 -136.46,-2.59 -144.67,13.4 -30.34,60.97 -108.66,242.31 -171.75,421.01 -40.21,113.89 -74,225.63 -84.38,301.57 -7.97,58.12 -9.89,132.52 -11.72,204.26 -3.35,131.64 -6.53,255.6 -53.3,302.49l-0.25 0.25c-34.4,34.21 -168.35,59.1 -299.21,68.46 -134.47,9.59 -275.61,3.03 -312,-26.35 -52.52,-42.11 -87.92,-179.01 -118.7,-298.07 -15.41,-59.61 -29.54,-114.22 -41.08,-141.15 -15.55,-33.78 -93.84,-152.15 -180.55,-278.65 -103.92,-151.59 -217.72,-311.57 -250.45,-351.78 -35.62,-5.56 -105.79,-0.48 -176.73,14.01 -69.1,14.12 -135.25,35.97 -161.9,63.29 -2.22,2.28 -3.36,2.76 -3.41,3.09 -11.75,70.41 -45.43,287.39 -61.92,481.51 -9.42,110.96 -13.19,212.5 -3.62,269.13l0 0.25c21.61,131.09 84.68,467.62 84.85,468.57l-0.5 25.27c-3.43,15.27 -10.66,29.81 -21.18,43.52 -37.95,49.45 -143.44,106.84 -254.01,146.65 -110.19,39.65 -230.92,64.14 -300.81,48.44 -20.08,-4.51 -37.7,-12.14 -52.16,-23.22l-0.5 -0.5c-59.4,-46.47 -107.36,-132.14 -155.73,-218.56 -35.09,-62.67 -70.46,-125.85 -104.98,-164.97l-0.1 0.09c-67.21,-74.85 -175.67,-170.55 -281.69,-256.64 -132.19,-107.37 -256.43,-198.04 -289.29,-212.94 -25.13,0.3 -84.85,24.86 -144.8,58.55 -60.28,33.86 -115.2,73.82 -124.9,101.78 -3.79,63.15 10.33,205.4 30.07,349.33 22.16,161.69 51.11,322.98 69.44,374.98 12.73,34.33 46.34,93.16 82.7,156.84 69.87,122.33 148.91,260.69 138.17,335.38l0 0.25c-7.34,49.1 -97.59,138.17 -196.79,214.2 -103.1,79.01 -222.97,150.49 -270.95,150.49 -71.67,0 -136.1,-56.06 -268.82,-171.5 -45.04,-39.19 -98.51,-85.7 -157.4,-135.06 -206.29,-173.15 -596.23,-302.14 -663.23,-323.47 -22.58,4.94 -76.99,46.53 -131.39,97.13 -59.21,55.07 -111.78,116.69 -116.94,149.9 0.3,79.3 312.52,693.37 313.41,695.12 31.54,53.43 98.01,128.55 159.43,197.98 61.79,69.86 118.91,134.44 141.15,178.33l0.25 0.25c5.78,11.63 8.58,24.23 8.58,37.61 0,51.53 -64.72,150.31 -140.08,239.3 -71.87,84.9 -156.8,166.82 -202.24,189.38 -14.69,7.3 -29.02,11.2 -42.75,11.2 -70.86,0 -156.99,-45.09 -264.04,-101.11 -54.96,-28.77 -116.11,-60.79 -185.32,-91.44l-0.73 -0.25c-163.52,-74.4 -640.1,-118.77 -719.82,-125.75 -25.91,16.34 -67.14,66.81 -104.33,125.7 -39.52,62.57 -71.28,130.24 -71.13,170.72l0 0.25c0,3.06 0.1,4.96 0.27,5.29l0.25 0.25c23.77,47.79 126.04,185.54 235.25,317.65 89.35,108.11 181.61,210.37 236.66,253.37l0.5 0.24c47.74,37.96 127.29,81.7 200.83,122.12 105.73,58.11 200.95,110.44 215.34,164.35l0 0.25c1.82,6.85 3.14,14.13 3.99,21.69 7.74,70.05 -29.84,201.22 -80.66,315.99 -53.78,121.44 -127.97,230.98 -189.25,247.26l-0.25 0c-4.79,1.26 -9.37,2.16 -13.63,2.62l-0.25 0c-24.87,2.69 -58.78,-6.34 -108.08,-19.52 -83.15,-22.21 -218.6,-58.4 -381.02,-63.9l-0.48 0c-110.25,-4.47 -256.39,2.51 -391.65,14.09 -150.92,12.94 -284.78,31.04 -336.57,44.86 -14.91,20.29 -39.19,83.68 -59.97,153.34 -21.82,73.07 -37.45,146.78 -31.2,175.95 34.16,37.31 182.5,160.55 339.56,270.54 105.01,73.55 212.26,139.86 288.03,167.54 38.07,13.89 71.9,24.21 106.59,34.8 81.87,24.97 168.27,51.32 299.31,115.92 50.38,16.76 76.49,75.83 83.23,154.98 3.19,37.49 2.77,81.37 -0.76,127.06 -3.43,44.28 -10.03,91.32 -19.27,136.61 -27.58,135.15 -84.97,252.09 -165.41,258.93 -55.58,4.66 -130.65,7.06 -205.4,8.28 -86.76,1.43 -149.3,1.44 -194.94,1.44 -36.43,0 -167.38,41.97 -308.94,92.57 -187.66,67.11 -386.32,146.57 -412.96,165.47 -13.63,11.07 -23.29,25.25 -29.77,47.64 -8.61,29.8 -12.41,73.47 -12.41,138.25 2.88,29.76 18.16,176.15 41.72,194.94 22.37,17.86 221.63,97.9 410.61,165.55 142.34,50.95 274.59,93.3 311.76,93.3 103.8,0 284.34,0.01 400.09,9.5l0.25 0c80.7,6.67 138.42,124.68 166.09,260.61 9.13,44.95 15.7,91.53 19.13,135.38 3.53,45.18 4,88.65 0.92,125.94 -6.55,79.42 -32.64,138.78 -83.17,155.55 -131.89,65.07 -218.43,91.47 -300.55,116.53 -34.5,10.52 -68.18,20.81 -106.09,34.61 -75.87,27.71 -183.46,94.25 -288.71,168 -156.34,109.52 -303.61,231.68 -338.23,269.39 -6.71,29.12 9.01,103.52 30.98,177.06 20.67,69.28 44.78,132.24 59.55,152.55 51.45,13.89 184.4,32.02 334.62,45.15 136.01,11.87 283.26,19.2 394.15,15.12 162.88,-6.32 298.54,-42.97 381.61,-65.41 48.57,-13.12 81.98,-22.12 106.68,-19.73l1.23 0c4.33,0.5 8.79,1.39 13.33,2.58 61.56,16.21 136.08,126.49 190.03,248.45 51.1,115.49 88.69,247.15 80.45,316.34 -0.75,6.29 -2.03,12.89 -3.81,19.69l0 0.5c-14.78,54.71 -111.33,107.94 -217.86,166.62 -73.19,40.32 -151.89,83.68 -198.58,120.59l-0.25 0.24c-54.89,42.97 -147.17,145.27 -236.62,253.42 -109.36,132.23 -211.66,269.59 -235.8,317.42l-0.01 5.91c0,40.88 31.89,108.68 71.48,171.16 37.37,58.97 78.49,109.31 104.05,125.3 79.41,-6.91 556.9,-50.98 719.8,-124.43 67.78,-30.48 128.02,-62.13 182.33,-90.63 108.74,-57.23 196.21,-103.18 267.99,-103.18 13.33,0 27.43,3.83 42.07,11 45.29,22.23 130.36,103.99 202.32,188.87 75.46,89.02 140.37,187.98 140.37,239.89 0,12.91 -2.79,25.37 -8.58,37.22l-0.25 0.75c-22.12,43.92 -79.64,108.89 -141.77,179.09 -61.3,69.24 -127.49,144.03 -158.8,196.92 -0.89,1.75 -313.49,616.67 -313.49,695.48 0,0.2 -0.03,0.13 -0.07,0 4.68,32.5 57.46,93.93 116.92,149.09 54.69,50.73 109.51,92.51 132.22,97.63 67.89,-21.68 457.34,-150.87 662.5,-323.5l0 -0.25c64.34,-54 112.97,-96.27 154.16,-132.05 135.34,-117.6 200.27,-174.03 272.44,-174.03 47.75,0 167.96,71.57 271.29,150.6 99.15,75.82 189.35,164.53 196.79,213.45l0 0.5c10.77,74.23 -67.93,211.86 -137.78,333.98 -36.75,64.24 -70.77,123.74 -83.24,157.12 -18.24,51.25 -47.28,213.14 -69.53,375.43 -19.75,143.99 -33.91,286.32 -30.19,349.43 9.72,28.34 64.72,68.43 124.96,102.31 59.84,33.65 119.28,58.11 144.13,58.48 32.21,-14.01 155.54,-103.87 287.28,-210.63 107.05,-86.75 216.92,-183.51 284.83,-258.89l0.1 0.09c34.64,-39.38 69.66,-102.08 104.44,-164.37 48.47,-86.78 96.57,-172.94 155.46,-219.34l0.75 -0.5c14.22,-10.91 31.51,-18.51 51.2,-23.06 69.7,-16.17 191.02,8.4 301.81,48.21 111.01,39.89 216.93,97.42 254.65,146.57 10.3,13.42 17.42,27.67 20.9,42.63l0.5 25.51c-0.17,0.95 -63.67,338.27 -85.1,468.85l0 0.25c-9.65,57 -5.87,159.1 3.64,270.52 16.52,193.73 50.19,409.86 62.1,479.88l3.82 3.68c27.18,27.38 92.96,49.12 161.59,63.08 70.89,14.42 141.01,19.32 176.49,13.55 31.55,-37.96 144.29,-195.96 248.06,-347.05 88.01,-128.11 167.96,-249.02 183.33,-283.23 11.68,-27.2 25.68,-81.42 40.97,-140.63 30.74,-119.06 66.13,-256 118.9,-297.82 37.71,-29.2 178.12,-35.87 311.78,-26.36 130.9,9.33 264.84,34.34 299.3,68.86 46.68,46.88 49.84,171.07 53.2,303.01 1.82,71.3 3.72,145.21 11.47,203.15 10.62,76.27 44.57,188.26 84.87,302.25 63.15,178.58 141.39,359.73 171.72,420.64 10.26,20 156.8,12.79 157.2,12.78l2.97 -0.25c6.32,0 3.11,0.21 16.05,0.46 40.66,0.77 135.78,2.56 144.4,-12.22 29.8,-60.36 108.37,-242.44 172.05,-422.45 40.23,-113.68 74.12,-225.25 84.81,-301.22 7.71,-57.69 9.59,-131.46 11.39,-202.68 3.36,-132.06 6.55,-256.52 52.92,-303.55l0.99 -0.99c34.71,-33.91 168.18,-58.59 298.7,-67.89 134.1,-9.56 274.83,-3.14 311.62,25.86l0.75 0.73c50.8,41.25 85.16,173.76 115.62,291.19 16.12,62.15 31,119.57 42.74,146.08 14.97,33.35 95.47,155.08 184.15,284.21 103.71,150.99 216.37,308.93 248.12,347.22 35.61,5.48 105.48,0.47 176.25,-13.92 67.85,-13.78 132.98,-35.18 160.7,-62.16 2.72,-2.64 4.15,-3.26 4.2,-3.62l0 -0.73c12.11,-69.54 45.73,-284.95 62.57,-478.43 9.73,-112.01 13.85,-214.78 4.66,-272.13 -23.7,-135.54 -84.85,-468 -85.02,-468.93l0.25 -24.53c3.35,-15.66 10.98,-30.87 22.27,-45.37 38.02,-48.82 142.38,-105.5 251.85,-145.01 109.13,-39.4 228.63,-63.98 298.15,-49.17 20.72,4.41 39.06,12.28 54.28,24.07 60.33,46.71 108.8,132.99 157.58,219.8 34.99,62.28 70.22,124.97 105.31,164.41l-0.14 0.12c66.31,74.09 174.96,169.89 281.52,256.4 132.58,107.62 257.46,198.55 289.7,212.68 24.97,-0.58 84.19,-25.03 143.82,-58.53 60.42,-33.93 115.63,-74.09 125.35,-102.3l-0.08 1.01 0.1 -1.32c3.57,-63.56 -10.75,-206.82 -30.61,-351.39 -22.23,-161.64 -50.89,-321.86 -69.01,-372.59l-0.16 0.05c-12.57,-34.17 -46.71,-94.01 -83.57,-158.58 -69.5,-121.82 -147.68,-258.85 -137.37,-332.67l0 -0.25c7.12,-49.23 96.83,-137.88 195.68,-213.73 103.38,-79.33 223.97,-151.26 271.67,-151.26 73.26,0 138.74,57.01 275.55,176.16 48.02,41.81 104.58,91.06 151.36,130.46 205.02,172.47 595.13,301.59 663.05,323.22 22.45,-5.01 77.14,-46.87 131.8,-97.75 59.4,-55.31 112.1,-116.92 116.58,-149.45 -0.13,0.13 -0.16,0.18 -0.16,0 0,-76.95 -300.3,-669.99 -312.65,-694.35 -31.75,-52.8 -97.33,-126.96 -158.22,-195.83 -62.65,-70.86 -120.8,-136.63 -143.13,-180.84l0 -0.25c-6.03,-12.07 -8.9,-24.74 -8.9,-37.94 0,-52.01 64.57,-150.64 139.86,-239.47 71.91,-84.84 156.77,-166.56 202.27,-189.24l0.1 0.2c15.1,-7.52 29.66,-11.55 43.31,-11.55 70.47,0 157.4,45.63 265.49,102.38 56.21,29.51 118.69,62.32 183.86,91.55l0.24 0c162.74,73.39 640.55,117.85 720.06,124.84 25.48,-16.29 66.51,-66.63 103.88,-125.52 39.69,-62.54 71.71,-130.36 71.71,-171.17l0.05 -5.26c-24.82,-48.7 -128.15,-187.91 -237.98,-320.74 -88.62,-107.19 -179.78,-208.25 -234.58,-251.06 -46.78,-36.56 -124.46,-79.35 -196.93,-119.29 -106.96,-58.93 -204.23,-112.53 -219.38,-167.54 -2.07,-7.56 -3.53,-14.94 -4.33,-22.03 -7.93,-69.44 29.71,-200.36 80.77,-315.31 53.73,-120.95 127.74,-230.33 188.94,-247.35 5.11,-1.49 10.11,-2.5 14.89,-3.02l0.25 0c25.43,-2.69 59.22,6.46 108.41,19.79 82.76,22.49 217.33,58.95 380.29,64.96 110.7,4.08 257.49,-3.19 393.16,-14.97 150.85,-13.08 284.28,-31.17 335.57,-44.94 14.4,-19.33 38.34,-82.86 59.02,-152.79 21.82,-73.81 37.45,-148.32 31.2,-177.4 -36.39,-38.58 -183.97,-160.71 -339.93,-270.02 -104.37,-73.14 -210.88,-139.11 -286.29,-166.96 -40.23,-14.31 -71.61,-23.83 -103.46,-33.49 -83.59,-25.35 -170.19,-51.65 -302.89,-117.42 -51.11,-16.67 -77.42,-76.86 -83.96,-157.4 -2.98,-36.76 -2.54,-79.46 0.86,-123.83 3.38,-44.05 9.62,-89.78 18.24,-132.98 27.34,-136.9 85.28,-256.34 166.49,-263.17 55.66,-4.79 130.78,-7.23 205.5,-8.49 86.59,-1.44 149.13,-1.45 194.73,-1.45 36.72,0 168.96,-42.38 311.46,-93.36 187.67,-67.14 385.52,-146.32 410.95,-164.96 13.34,-10.94 22.92,-25.06 29.43,-47.55 8.63,-29.84 12.52,-73.45 12.53,-138 -2.84,-28.98 -17.79,-170.19 -40.99,-194.87zm-7115.93 7583.47l-187.27 0c-70.38,-5.68 -163.86,-23.91 -192.29,-79.76l-0.25 -0.5c-31.29,-62.7 -112.56,-250.7 -177.9,-435.49 -42.66,-120.64 -78.84,-241 -90.79,-327.03l0 -0.25c-8.58,-63.87 -10.58,-141.95 -12.49,-217.26 -2.69,-105.83 -5.25,-205.45 -16.55,-216.8 -11.7,-11.71 -112.44,-24.15 -218.53,-31.71 -108.54,-7.72 -212.81,-10.26 -223.33,-1.62l-0.75 0.75c-19.82,15.71 -49.5,130.57 -75.29,230.42 -16.8,65.04 -32.18,124.6 -46.95,158.96l-0.25 0.5c-18.17,41.1 -102.85,170 -194.94,304.05 -115.47,168.13 -245.32,348.05 -270.15,372.91l-0.5 0.5c-14.14,13.78 -34.6,22.66 -59.51,26.96 -48.18,8.32 -137.83,3.21 -224.21,-14.36 -89.43,-18.18 -179.42,-50.82 -226,-97.75 -20.55,-20.7 -34.27,-44.49 -38.94,-71.58l0 -0.25c-12.21,-71.75 -46.87,-293.82 -63.63,-490.5 -10.23,-119.96 -13.85,-232.54 -2.15,-301.73 17.86,-108.58 66.18,-367.51 81.13,-447.26 -29.85,-29.26 -106.3,-66.81 -189.86,-96.83 -91.22,-32.77 -185.58,-54.29 -230.96,-43.76 -1.65,0.38 -2.08,0.14 -2.38,0.17 -39.27,31.29 -80.87,105.78 -122.77,180.8 -38.19,68.4 -76.63,137.24 -120.65,187.07l-0.25 0.5c-72.15,80.09 -187.38,181.67 -299.19,272.28 -147.29,119.38 -293.25,221.87 -331.18,234.19 -7.65,2.43 -15.54,3.99 -23.57,4.59 -45.76,3.41 -137.07,-28.54 -218.36,-74.25 -83.23,-46.81 -162.2,-111.08 -182.97,-172.27 -3.39,-10.01 -5.55,-20.09 -6.29,-30.11l0 -0.75c-4.62,-70.48 10.16,-223.45 31.08,-375.94 23.38,-170.49 54.8,-343.13 75.52,-401.19l0.25 -0.5c16.2,-43.78 52.81,-107.79 92.36,-176.94 59.39,-103.86 126.26,-220.79 122.47,-252.73 -2.22,-14.25 -70.93,-72.55 -148.28,-131.71 -85.31,-65.24 -174,-124.33 -194.5,-124.33 -25.34,0 -78.62,46.3 -189.69,142.81 -44.9,39.01 -98.03,85.19 -155.65,133.54l-0.12 -0.14c-245.09,206.14 -715.43,350.51 -716.77,350.92l-10.4 2.22c-4.97,0.64 -9.16,1.01 -12.28,1.01 -50.81,0 -143.83,-59.29 -222.61,-132.36 -77.51,-71.9 -147.54,-161.56 -156.17,-225.25 -0.86,-6.38 -1.32,-11.9 -1.32,-16.48 0,-108.96 326.43,-750.63 327.36,-752.46l1.74 -2.97c37.17,-64.52 108.98,-145.67 175.4,-220.69 49.79,-56.26 96.32,-108.83 116.81,-140.92 -9,-26.24 -55.45,-87.9 -108.57,-150.54 -59.33,-69.99 -123.84,-135.07 -156.03,-154.33 -42.44,4.58 -113.63,41.95 -200.82,87.74l-0.25 0c-57.81,30.34 -121.95,64.04 -188.99,94.19 -197.74,89.17 -771.57,136.18 -773.21,136.31l-4.96 0.25c-14.86,0 -29.96,-4.03 -45.12,-11.54 -45.17,-22.4 -109.09,-93.72 -159.61,-173.45 -50.56,-79.8 -91.28,-172.5 -91.28,-239.03 0,-22.36 4.24,-43.22 13.47,-61.85l0.25 -0.25c28.09,-55.95 137.19,-204.01 251.31,-342 93.76,-113.35 192.88,-222.45 256.45,-272.23 56.41,-44.49 138.93,-89.95 215.68,-132.23 81.71,-45 155.73,-85.79 156.41,-88.34l0.35 -2.34c5.57,-46.81 -27.13,-152.34 -70.54,-250.44 -38.58,-87.22 -80.54,-163.7 -103.03,-175.77 -7.23,1.66 -29.46,7.67 -59.6,15.82 -87.75,23.7 -231.06,62.43 -409.86,69.36 -118.6,4.36 -270.91,-3.03 -409.51,-15.12 -169,-14.77 -322.01,-37.17 -373.64,-54.34l-0.63 -0.21c-9.94,-3.38 -18.92,-8.65 -27.05,-15.57l-0.25 -0.25c-31.58,-26.92 -74.29,-121.03 -103.08,-217.51 -28.91,-96.8 -46.61,-202.94 -29.12,-256 4.36,-12.95 10.56,-24.4 18.71,-34 31.95,-37.98 196.44,-176.88 366.72,-296.17 113.14,-79.26 230.75,-151.51 317.94,-183.35 38.2,-13.91 74.93,-25.13 112.56,-36.6 77.61,-23.68 159.44,-48.65 286.06,-111.5l15.36 -5.19c7.89,-1.6 -9.71,-16.67 -7.38,-44.91 2.55,-30.79 2.11,-67.48 -0.92,-106.11 -3.13,-39.99 -8.84,-81.15 -16.64,-119.53 -17.4,-85.45 -38.25,-158.35 -52.64,-159.54 -109.7,-8.99 -287.6,-9 -389.93,-9 -53.06,0 -200.71,-45.72 -354.38,-100.73 -198.95,-71.22 -415.53,-160.92 -446.77,-185.85 -68.35,-54.56 -89.23,-287.79 -89.28,-288.44l-0.5 -5.46c0,-75.99 5.46,-130.7 17.86,-173.59 14.56,-50.29 37.79,-83.3 71.43,-110.58l0.99 -0.73c31.4,-24.57 249.73,-114.73 449.1,-186.02 152.91,-54.66 299.21,-100 351.56,-100 57.46,0 136.17,-0.01 192.96,-0.94 68.85,-1.13 139.83,-3.48 196.97,-8.28 14.1,-1.19 34.68,-73.17 51.96,-157.86 7.9,-38.74 13.66,-80.33 16.78,-120.76 3.02,-39.02 3.41,-76.08 0.76,-107.23 -2.37,-27.92 15.2,-42.74 7.31,-44.35l-15.36 -5.19c-125.73,-62.36 -207.42,-87.28 -284.8,-110.87 -37.82,-11.54 -74.74,-22.8 -113.05,-36.79 -87.1,-31.83 -204.36,-103.83 -317.26,-182.9 -171.95,-120.42 -337.89,-260.55 -368.21,-297.18 -7.76,-9.42 -13.71,-20.49 -17.9,-32.98 -17.75,-52.98 -0.24,-159.17 28.69,-256.05 28.81,-96.54 71.57,-190.89 103.41,-218.16 8.46,-7.21 17.69,-12.58 27.54,-15.88 50.99,-17.12 205.89,-39.72 376.57,-54.34 138.08,-11.83 289.32,-18.86 407.01,-14.09 178.17,6.11 321.34,44.37 409.26,67.85 31.04,8.29 53.71,14.34 60.18,15.75 22.13,-11.37 64.02,-87.53 102.65,-174.76 43.31,-97.8 76.02,-203.29 70.75,-251.08l-0.48 -3.11c-0.51,-1.71 -73.22,-41.69 -153.93,-86.05 -78.07,-42.91 -162.5,-89.32 -218.67,-134 -63.64,-50.01 -162.53,-158.85 -256,-271.94 -114.54,-138.57 -223.66,-286.76 -251.1,-341.93 -9.03,-18.25 -13.3,-39.11 -13.4,-61.77l0 -0.25c-0.14,-66.48 40.2,-158.84 90.43,-238.36 50.38,-79.75 113.99,-151.19 158.9,-173.87 15.1,-7.59 30.45,-11.72 45.97,-11.76l4.96 0c1.64,0.13 575.75,47.53 773.86,137.65 68.14,30.3 133.37,64.45 192.01,95.14 85.33,44.66 155.11,81.19 197.17,85.76 32.46,-19.33 97.33,-84.8 156.77,-155.02 52.9,-62.48 99.12,-123.81 108.23,-149.88 -20.47,-31.96 -66.66,-84.18 -116.14,-140.13 -66.55,-75.22 -138.67,-156.75 -176.03,-221.75l-1.74 -2.97c-0.93,-1.83 -327.29,-643.23 -327.29,-752.24 0,-5.74 0.51,-11.87 1.47,-18.26l0 -0.25c9.5,-63.2 79.18,-152.35 156.12,-223.91 78.29,-72.83 170.63,-131.82 221.64,-131.82 4.43,0 9.05,0.39 13.72,1.07l9.41 2.22c1.35,0.41 472.19,144.63 717.32,350.39 66.34,55.6 116.86,99.54 159.39,136.55 108.57,94.44 161.27,140.29 185.56,140.29 20.62,0 109.06,-59 194.16,-124.22 77.37,-59.29 146.11,-117.76 148.23,-131.97 4.26,-32.35 -63.17,-150.45 -122.81,-254.86 -39.51,-69.19 -76.02,-133.12 -91.62,-175.18l-0.25 -0.73c-20.73,-58.03 -52.22,-230.83 -75.63,-401.48 -20.89,-152.32 -35.63,-305.11 -30.98,-375.71l0 -0.75c0.76,-9.97 2.88,-19.94 6.24,-29.84 20.87,-61.1 99.76,-125.39 182.99,-172.16 81.42,-45.76 172.94,-77.82 219.04,-74.33l0.25 0c8.29,0.64 16.37,2.24 24.15,4.87 37.88,13 184.79,116.38 332.35,236.23 110.84,90.02 224.67,190.54 296.05,270.03l0.25 0.5c44.58,50.31 83.03,119.02 121.19,187.17 42.14,75.29 83.92,149.93 122.47,180.48 0.38,0.18 0.84,-0.16 3.18,0.37 45.5,10.22 139.49,-11.26 230.43,-43.99 83.5,-30.06 159.89,-67.71 189.57,-97.24 -14.8,-79.26 -62.91,-338.1 -80.92,-447.33 -11.66,-68.84 -8.05,-180.82 2.09,-300.33 16.72,-196.87 51.4,-419.94 63.41,-492.15l0 -0.25c4.6,-26.48 17.8,-49.74 37.58,-69.99 46.35,-47.49 137.08,-80.51 227.31,-98.95 86.98,-17.77 177.35,-23.02 225.33,-14.68 24.65,4.29 44.82,13.06 58.74,26.63l0.75 0.75c23.34,23.49 155.54,207.41 272.19,377.58 90.77,132.4 173.82,258.91 191.94,299.45l0.5 0.99c14.95,34.92 30.3,94.21 47.04,159 25.88,100.09 55.64,215.17 75.59,231.17 10.91,8.82 115.26,6.36 223.8,-1.39 105.83,-7.56 206.42,-19.98 218.79,-31.68 11.32,-11.97 13.87,-110.99 16.54,-216.15 1.92,-75.74 3.96,-154.29 12.72,-218.12 11.77,-86.17 47.79,-206.42 90.32,-326.85 65.28,-184.88 146.63,-373.08 177.92,-435.84l0.25 -0.5c43.94,-86.43 196.28,-83.51 259.89,-82.28l0.25 0c1.07,0.01 -0.55,-0.04 13.25,-0.04 26.92,-0.82 230,-5.06 273.79,82.82l0 0.25c31.21,63.2 113.13,252.32 178.49,437.1 42.41,119.92 78.35,239.38 90.24,325.09l0 0.25c8.7,63.81 10.73,142.28 12.65,217.95 2.67,104.75 5.18,203.36 16.04,215.56 13.37,11.96 113.6,24.48 219.04,32.01 106.71,7.63 209.37,10.09 223.82,1.73 18.47,-15.14 47.23,-125.68 72.79,-223.99 17.53,-67.48 33.8,-129.97 50.19,-166.78 17.9,-40.93 103.1,-170.81 195.61,-305.69 113.84,-165.97 241.38,-343.12 268.35,-371.13 14.29,-14.7 35.63,-23.97 61.89,-28.23l0.24 0c47.94,-7.77 136.44,-2.51 221.77,14.74 88.67,17.94 177.95,49.79 224.78,95.37 21.62,21.01 35.96,45.49 40.62,73.64 12.35,72.07 47,294.18 64.09,490.47 10.44,119.92 14.42,232.57 3.23,301.99l0 0.73c-18.17,104.2 -66.63,366.93 -81.38,446.78 29.66,29.73 105.62,67.33 188.61,97.22 90.04,32.46 183.22,53.75 229.09,44.03 2.76,-0.59 2.42,0.54 3.17,-0.04l0.25 -0.25c39.4,-30.4 81.53,-105.43 123.99,-181.04 38.19,-68.03 76.65,-136.52 121.58,-186.91l-0.14 -0.12c70.46,-79.2 183.62,-179.27 294.22,-269.07 147.63,-119.84 295.33,-223.46 334.12,-237.09 7.93,-2.79 16.29,-4.49 24.91,-5.14 45.69,-3.52 136.81,28.41 218.05,73.99 82.96,46.56 161.81,110.48 182.88,171.15 3.61,10.39 5.89,20.72 6.66,30.81l0 0.75c4.68,70.94 -10.15,225.11 -31.17,378.38 -23.26,169.55 -54.62,341.04 -75.76,399.35l0 0.25c-15.76,42.93 -52.51,107.27 -92.21,176.8 -59.33,103.84 -126.15,220.89 -122.38,253.51 2.15,14.01 70.42,71.91 147.39,130.86 85.54,65.5 174.58,124.94 194.87,124.94 25.56,0 78.39,-46.01 187.71,-141.24 42.16,-36.73 92.2,-80.31 157.95,-135.5l0.12 0.14c245.24,-206.18 715.85,-350.25 717.19,-350.66l9.41 -2.22c4.75,-0.69 9.31,-1.06 13.66,-1.06l0 0.25c50.95,-0.01 143.22,58.89 221.4,131.59 76.93,71.56 146.65,160.77 156.16,224.19 0.95,6.44 1.45,12.55 1.45,18.22 0,108.87 -326.08,750.42 -327,752.25l-1.74 3.22c-37.15,63.96 -108.75,144.95 -174.99,219.9 -50.17,56.76 -97.05,109.82 -117.38,141.73 8.78,25.85 54.6,86.78 107.31,149.04 59.52,70.31 124.73,136.04 157.91,155.92 41.34,-4.53 111.19,-41.12 196.74,-85.92 57.3,-30 121.03,-63.38 192.34,-95.1 197.93,-90.21 772.39,-137.93 774.02,-138.06l4.96 -0.25c14.59,0 29.72,4.08 45.03,11.71l0.1 -0.2c44.69,22.29 108.6,93.77 159.32,173.7 50.69,79.93 91.65,172.78 91.65,239.41 0,22.62 -4.28,43.59 -13.53,62.15l-0.5 0.99c-28.87,55.44 -140.59,206.98 -256.56,347.2 -92.2,111.46 -188.56,217.6 -250.91,266.13 -56.02,43.82 -138.98,89.62 -215.94,132.09 -81.64,45.04 -155.38,85.75 -155.99,87.96l-0.6 4.04c-5.04,48.62 27.52,153.3 70.68,250.14 38.67,86.75 80.78,162.41 103.49,173.95 5.91,-1.2 29.04,-7.38 61.01,-15.93 87.54,-23.43 229.45,-61.43 407.77,-67.62 118.61,-4.66 270.86,2.5 409.43,14.4 169.96,14.6 323.63,37.01 374.45,54.24l-0.05 0.14c9.33,3.18 17.84,7.99 25.48,14.22l0.25 0c32.26,26.37 75.3,121.76 104.21,219.6 28.82,97.52 46.32,204.51 28.7,257.02 -4.03,12 -9.71,22.62 -17.08,31.68l-0.5 0.5c-30.7,36.85 -196.66,176.88 -367.92,296.88 -112.93,79.12 -229.95,151.11 -316.19,182.76l-0.25 0c-38.77,14.08 -75.8,25.33 -113.51,36.8 -77.78,23.64 -159.02,48.36 -284.95,110.88l-15.61 5.19c-7.9,1.6 9.68,16.46 7.3,44.39 -2.66,30.98 -2.28,67.78 0.71,106.52 3.11,40.46 8.8,81.9 16.59,120.33 17.31,85.31 38.05,158.01 52.31,159.23 109.91,9 287.72,9.01 389.82,9.01 52.33,0 198.48,45.25 351.31,99.85 199.84,71.41 418.59,161.59 449.85,185.92l1.49 1.48c66.63,55.31 88.01,287.12 88.07,287.76l0.5 5.46c0,75.85 -5.56,130.57 -17.97,173.42 -14.56,50.25 -37.77,83.28 -71.09,110.44l-0.75 0.5c-31.54,24.95 -248.5,114.67 -447.33,185.8 -153.84,55.03 -301.47,100.79 -354.08,100.79 -57.27,0 -135.81,0.01 -192.75,0.95 -68.82,1.16 -139.82,3.56 -197.08,8.46l-0.25 0c-14.26,1.15 -35.05,75.25 -52.3,161.62 -7.74,38.84 -13.3,79.29 -16.25,117.62 -2.92,37.99 -3.34,74.04 -0.86,104.5 2.33,28.61 -15.04,44.11 -7.25,45.67l15.86 5.44c128.59,64.18 210.01,88.9 288.56,112.73 37.81,11.46 75.1,22.78 109.4,35.03l0.5 0.25c86.1,31.66 202.82,103.5 315.54,182.52 171.42,120.14 337.74,260.48 368.67,297.27l0.75 0.5c7.33,8.95 12.96,19.7 17.08,31.96 17.56,52.56 0.09,159.48 -28.71,256.94 -28.85,97.52 -71.9,192.73 -104.55,219.56l0.1 0.12c-7.59,6.2 -16.25,11.05 -26.06,14.35 -51.01,17.16 -204.83,39.64 -374.58,54.35 -138.29,12 -290.13,19.32 -408.52,14.97 -178.96,-6.61 -321.3,-45.21 -408.79,-68.91l-0.25 0c-31.12,-8.42 -53.83,-14.59 -60.12,-16.03 -22.93,12.13 -65.11,88.29 -103.73,175.26 -43.24,97.34 -75.78,202.3 -70.35,249.9l0.38 3.19c0.8,2.89 75.87,44.27 158.42,89.75 76.16,41.97 157.78,86.93 213.78,130.7 63.49,49.59 161.47,157.44 254.41,269.88 114.99,139.07 224.99,288.37 253.34,344.04l0 0.5c9.47,18.89 13.81,39.86 13.81,62.23 0,66.55 -40.88,159.22 -91.52,239.04 -50.5,79.58 -114.33,150.86 -159.23,173.37 -15.36,7.69 -30.56,11.84 -45.3,11.84l-4.96 -0.25c-1.64,-0.13 -576.04,-47.68 -773.5,-136.72 -70.9,-31.92 -134.14,-65.12 -191.06,-95 -86.22,-45.26 -156.69,-82.26 -198.08,-86.99 -32.9,19.41 -98.05,84.85 -157.5,154.99 -52.99,62.53 -99.21,123.96 -108.09,150.18 20.64,32.42 67.85,85.82 118.27,142.84 65.81,74.45 136.77,154.69 174.14,218.26l1.99 3.47c0.93,1.83 326.95,643.88 326.95,752.19 0,4.54 -0.43,10.01 -1.31,16.43 -8.71,63.98 -78.49,153.75 -155.75,225.66 -78.58,73.14 -171.41,132.45 -222.05,132.45 -3.24,0 -7.35,-0.31 -12.44,-0.99l-9.9 -2.22c-1.36,-0.41 -473.39,-145.02 -717.93,-350.73 -72.77,-61.31 -116.39,-99.29 -153.34,-131.46 -112.56,-98.03 -166.44,-144.95 -192.3,-144.95 -20.46,0 -109.44,59.44 -194.88,125 -76.89,59 -145.09,116.99 -147.12,131 -4.04,31.71 62.67,148.66 122.01,252.65 39.77,69.7 76.63,134.26 92.49,177.39l0 0.5c21.05,58.4 52.33,229.64 75.6,398.81 21.06,153.24 36.03,307.42 31.5,378.23l0 0.75c-0.77,10.35 -2.94,20.51 -6.33,30.39 -21.11,61.04 -100.17,125.24 -183.35,171.97 -81.41,45.73 -172.8,77.77 -218.39,74.32 -8.29,-0.63 -16.23,-2.17 -23.72,-4.67 -37.4,-12.22 -184.92,-115.88 -333.11,-236.18 -110.58,-89.78 -224.38,-190.37 -295.99,-270.41l-0.25 0c-44.12,-49.61 -82.77,-118.36 -121.16,-186.7 -42.58,-75.78 -84.91,-151.11 -124.36,-181.69l-0.25 -0.25c-0.77,-0.6 -0.34,0.56 -3.03,0 -45.83,-9.76 -139.12,11.7 -229.26,44.23 -82.79,29.88 -158.54,67.23 -188.32,96.6 14.68,79.8 62.87,342.24 81.13,447.04l0 0.5c11.35,69.86 7.39,183.28 -3.09,303.82 -17.08,196.45 -51.61,417.31 -64.06,488.81 -4.8,28.15 -19.16,52.65 -40.85,73.74 -46.78,45.55 -135.7,77.39 -224.12,95.34 -85.01,17.27 -173.31,22.53 -221.58,14.81 -26.73,-4.29 -48.4,-13.59 -62.79,-28.4 -26.01,-26.82 -154.68,-205.29 -269.33,-372.21 -91.86,-133.76 -176.45,-262.54 -194.94,-304.06l0 -0.25c-16.42,-36.93 -32.44,-98.74 -49.79,-165.63 -25.2,-97.13 -53.6,-206.59 -72.21,-224.09 -11.59,-9.07 -115.97,-6.8 -224.46,0.94 -104.75,7.46 -204.38,19.83 -218.87,31.75 -11.11,13.78 -13.66,112.57 -16.31,217.33 -1.9,75.01 -3.9,152.73 -12.39,216.54l0 0.5c-12.07,85.84 -48.21,205.75 -90.75,326 -65.28,184.52 -146.83,373.21 -178.07,436.28l-0.25 0.25c-27.94,55.89 -101.37,74.45 -167.2,80.26zm5115.33 -12401.49c0,-0.01 0.03,0.17 0,0zm-250.95 -247.66l-1.24 -0.07 0 0.21 1.24 -0.14zm-8708.88 -949.8l-0.03 0.18 0.03 -0.18zm0.12 -0.88l0.03 -0.2 -0.03 0.2zm-1484.93 11215.55c-0.05,-0.29 -0.14,-0.92 -0.08,-0.37l0.08 0.37zm1485.63 1197.78l0.04 0.63 -0.04 -0.63zm5426.45 852.16l2.49 2.55 -2.49 -2.55zm2048.44 -853.01l0 -0.25 0 0.25zm1484.93 -1198.01l0.07 -0.42c0.08,-0.63 -0.04,0.12 -0.07,0.42z"/>
  <path class="fil0 str0" d="M4458.47 11075.93l-202.07 -198.76 -66.02 67.34c-53.02,52.35 -56.51,93 -21.86,126.76 34.39,33.57 74.81,30.23 127.27,-23.08l9.63 -9.85 96.58 94.87c-98.68,95.61 -202.96,122.69 -311.4,17.24 -109.45,-107.43 -79.8,-217.86 19.56,-318.91l134.23 -135.11c99.33,-101.36 207.65,-133.09 319.06,-23.89 108.79,107.03 79.85,217 -19.73,318.04l-85.25 85.33zm-19.91 -173.59l0 0 24.84 -23.98c52.61,-52.67 55.56,-94.37 21.58,-127.18 -34.5,-34.5 -76.21,-30.62 -127.31,22.62l-24.72 23.95 105.61 104.59z"/>
  <path class="fil0 str0" d="M5324.31 11403.6c18.79,-48.45 14.23,-85.91 -22.88,-108.3 -29.67,-18.84 -60.19,-15.95 -77.26,12.66 -54.03,85.32 139.86,253.76 39.06,417.56 -61.39,98.32 -160.89,107.37 -252.8,49.03 -100.74,-62.73 -122.69,-154.57 -80.19,-261.73l118.51 34.31c-22.97,50.76 -31.02,101.19 20.66,133.28 29.21,18.59 62.58,14.69 81.03,-15.58 58.41,-95.59 -133.55,-264.38 -40.76,-414.51 53.16,-87.07 158.46,-106.17 245.62,-53.14 89.41,56.2 113.33,154.06 76.37,250.14l-107.35 -43.72z"/>
  <path class="fil0 str0" d="M6004.36 11624.46l42.91 -102.63 68.81 28.13 66.44 -161.27 124.97 51.46 -66.57 161.23 83.88 34.43 -42.01 102.18 -83.37 -34.25 -142.92 345.24c-11.89,31.98 -5.59,54.45 22.4,66.27l41.19 18.04 -43.22 106.55c-18.84,-2.56 -34.56,-6.31 -64.35,-19.09 -94.65,-38.28 -129.35,-103.52 -91,-194.58l152.55 -373.8 -69.71 -27.93z"/>
  <polygon class="fil0 str0" points="7900.19,11697.6 8037.74,11684.66 7944.21,12344.17 7814.01,12356.89 7595.39,11727.45 7732.63,11713.57 7856.38,12137.21 7858.86,12137.21 "/>
  <path class="fil0 str0" d="M8561.42 11462.14l-42.04 -114.79 124.84 -46.95 43.71 115.75 -126.5 46zm259.95 700.42l0 0 -225.74 -607.18 126.46 -46.34 226.33 606.89 -127.05 46.62z"/>
  <path class="fil0 str0" d="M9300.21 11378.97l-45.92 -101.8 66.87 -30.86 -72.01 -158.62 123.44 -56.58 72.51 159.73 81.85 -37.66 45.92 101.29 -82.21 36.98 154.9 339.97c14.15,30.28 35.07,42.04 62.78,29.16l40.79 -18.86 47.96 105.54c-13.75,11.56 -27.54,20.7 -58.59,34.58 -91.99,42.01 -162.74,22.37 -203.58,-67.51l-167.07 -367.37 -67.65 32.02z"/>
  <path class="fil0 str0" d="M10115.23 11003.01c-68.29,-111.65 -39.85,-217.38 64.81,-288.77 103.74,-70.97 195.59,-63.49 260.58,33.5l235.52 342.83c10.82,16.84 29.25,36.67 45.39,51.83l-107.09 72.88c-10.23,-13.42 -24.38,-25.44 -33.45,-37.85 -18.84,62.87 -40.83,104.84 -94.91,141.79 -74.5,51.31 -147.6,25.93 -195.55,-43.27 -80.45,-116.34 -47.15,-235.09 71.48,-405.06l-22.36 -31.84c-29.97,-44.48 -64.44,-55.6 -101.08,-31.1 -50.61,35.4 -41.87,71.99 -12.98,119.31l-110.37 75.74zm302.93 -50.5l0 0c-62.41,127.15 -61.51,180.5 -29.15,227.41 23.52,35.36 49.7,36.25 83.91,12.98 30.96,-20.42 40.93,-60.62 40.93,-100.08l-95.69 -140.31z"/>
  <path class="fil0 str0" d="M5159.53 3669.38l-276.89 -455.28c-18.62,-29.16 -44.49,-30.66 -67.83,-16.85 -27.35,16.04 -40.41,47.88 -55.73,85.18l278.56 460.59 -121.32 74.42 -357.8 -586.79 115.11 -70.67 36.92 59.21c24.42,-75.57 35.41,-117.71 93.82,-152.05 60.28,-37.43 92.78,-27.04 149.41,4.84 22.15,-93.04 46.91,-126 92.75,-153.57 76.52,-46.34 142.41,-21.9 188.49,53.92l288.67 474.23 -122.08 75.63 -275.41 -455.43c-18.48,-30.21 -46.06,-30.21 -70.63,-16.05 -25.42,16.43 -39.79,46.81 -54.89,84.52l279.94 460.22 -121.1 73.94z"/>
  <path class="fil0 str0" d="M6102.97 2810.65c-35.46,-147.73 -3.61,-263.92 156.78,-301.32 158.29,-37.54 240.26,50.18 275.63,197.38l46.88 195.66c34.2,146.84 1.26,262.9 -157.43,300.37 -160.21,37.65 -241.48,-50.38 -276.18,-197.67l-45.69 -194.42zm287.54 -96.4l0 0c-19.2,-76.19 -54.45,-101.99 -103.2,-90.28 -49.36,11.41 -69.78,50.43 -51.79,126.84l59.09 246.64c18.11,76.2 53.75,102.73 102.89,91.06 49.84,-12 69.36,-50.95 50.93,-128.32l-57.91 -245.95z"/>
  <path class="fil0 str0" d="M7374.29 2523.93l7.84 -117.13 79.55 5.14 14.1 -183.85 142.28 9.1 -13.11 184.95 96.62 7.64 -9.05 117.2 -95.95 -6.55 -27.85 394.02c-3.15,36.2 10.81,57.28 43.44,60.28l46.87 3.45 -9.1 121.48c-18.84,3.68 -35.15,5.11 -72.47,3.34 -105.64,-7.74 -162.2,-62.1 -154.31,-166.54l31.06 -427.32 -79.9 -5.21z"/>
  <path class="fil0 str0" d="M9011.55 2695.82l-192.97 658.64 -130.29 -37.98 18.8 -66.38c-71.44,32.13 -108.76,52.77 -188.98,29.81 -72.33,-21.73 -100.05,-87.87 -73.64,-173.79l156.03 -531.86 138.67 39.86 -151.74 510.96c-8.61,33.33 5.4,54.04 35.5,61.68 29.89,9.8 61.56,-0.77 100.64,-14.4l152.56 -516.41 135.42 39.87z"/>
  <path class="fil0 str0" d="M9980.88 3306.91c17.25,-53.03 9.73,-91.02 -29.97,-113.21 -31.5,-18.31 -63.28,-14.57 -81.36,16.47 -51.61,94.49 160.54,262.92 60.8,440.93 -59.31,106.85 -164.87,120.98 -265.09,63.25 -108.71,-60.22 -136.6,-158.18 -96.27,-273.5l125.78 32.02c-21.45,53.83 -28.44,108.43 28.39,140.29 31.83,18.01 66.93,12.43 84.15,-22.12 58.8,-103.08 -153.46,-272.92 -61.75,-436.3 52.24,-95.78 163.68,-119.99 256.52,-67.12 97.94,54.46 128.4,157.82 94.2,261.5l-115.42 -42.21z"/>
 </g>
</svg>